<?xml version="1.0" encoding="UTF-8"?>
<!-- Generator: Adobe Illustrator 23.0.1, SVG Export Plug-In . SVG Version: 6.00 Build 0)  -->
<svg version="1.1" id="Capa_1" xmlns="http://www.w3.org/2000/svg" xmlns:xlink="http://www.w3.org/1999/xlink" x="0px" y="0px" viewBox="0 0 336.3 349.1" style="enable-background:new 0 0 336.3 349.1;" xml:space="preserve">
<style type="text/css">
	.st0{fill:#292F2D;}
</style>
<g id="Vertical">
	<g id="Logo-2">
		<g id="DEIIT">
			<path class="st0" d="M69.1,243.1h23.5c16.9,0,28.5,10.2,28.5,25.8c0,15.6-11.6,25.8-28.5,25.8H69.1V243.1z M91.9,284.9     c10.3,0,17-6.1,17-16c0-9.9-6.7-16-17-16H81v32H91.9z"/>
			<path class="st0" d="M170,285.2v9.6h-39.9v-51.7h39v9.6h-27.2v11.2h24v9.3h-24v12L170,285.2z"/>
			<path class="st0" d="M179.6,243.1h12v51.7h-12V243.1z"/>
			<path class="st0" d="M203.8,243.1h12v51.7h-12V243.1z"/>
			<path class="st0" d="M238.7,252.8h-16.5v-9.7h45v9.7h-16.5v41.9h-12V252.8z"/>
		</g>
		<g id="Iso-3">
			<g id="Triangulo">
				<polygon class="st0" points="156.8,140.2 138.1,172.6 127.1,191.6 107.3,225.9 69.1,225.9 137.7,107.1     "/>
				<polygon class="st0" points="237.5,174.5 196.4,174.5 175.7,138.7 166.7,123 147.6,89.9 168.1,54.4     "/>
				<polygon class="st0" points="267.2,225.9 127.1,225.9 146.9,191.6 247.4,191.6     "/>
			</g>
		</g>
	</g>
</g>
</svg>